<?xml version="1.0"?>
<svg xmlns="http://www.w3.org/2000/svg" xmlns:xlink="http://www.w3.org/1999/xlink" version="1.1" id="Capa_1" x="0px" y="0px" viewBox="0 0 512 512" style="enable-background:new 0 0 512 512;" xml:space="preserve" width="512px" height="512px" class=""><g><g>
	<g>
		<g>
			<path d="M256,252.604c44.214,0,80.184-35.888,80.184-80s-35.97-80-80.184-80s-80.184,35.888-80.184,80     S211.786,252.604,256,252.604z M256,132.604c22.106,0,40.092,17.944,40.092,40c0,22.056-17.986,40-40.092,40     s-40.092-17.944-40.092-40C215.908,150.548,233.894,132.604,256,132.604z" data-original="#000000" class="active-path" data-old_color="#000000" fill="#37B24D"/>
			<path d="M367.23,304.774c38.886-32.645,61.77-81.14,61.77-132.17C429,77.43,351.392,0,256,0S83,77.43,83,172.604     c0,51.03,22.884,99.526,61.77,132.171l-33.908,183.601c-1.459,7.901,1.963,15.906,8.687,20.326     c6.724,4.419,15.448,4.395,22.148-0.062L256,432.601l114.303,76.04c6.699,4.455,15.422,4.482,22.148,0.062     c6.724-4.42,10.146-12.425,8.687-20.326L367.23,304.774z M123.092,172.604C123.092,99.485,182.714,40,256,40     s132.908,59.485,132.908,132.604c0,42.521-20.676,82.771-55.309,107.667c-22.691,16.313-49.524,24.937-77.599,24.937     s-54.908-8.623-77.6-24.937C143.768,255.375,123.092,215.125,123.092,172.604z M267.12,391.922     c-6.732-4.479-15.508-4.479-22.24,0l-86.004,57.214l22.317-120.84c23.179,11.124,48.581,16.912,74.807,16.912     c26.227,0,51.628-5.788,74.807-16.912l22.317,120.841L267.12,391.922z" data-original="#000000" class="active-path" data-old_color="#000000" fill="#37B24D"/>
		</g>
	</g>
</g></g> </svg>
